<?xml version="1.0" standalone="no"?><!DOCTYPE svg PUBLIC "-//W3C//DTD SVG 1.1//EN" "http://www.w3.org/Graphics/SVG/1.1/DTD/svg11.dtd"><svg t="1613959914470" class="icon" viewBox="0 0 1883 1024" version="1.1" xmlns="http://www.w3.org/2000/svg" p-id="4167" xmlns:xlink="http://www.w3.org/1999/xlink" width="367.7734375" height="200"><defs><style type="text/css"></style></defs><path d="M23.013743 962.826429a924.614858 61.173571 0 1 0 1849.229716 0 924.614858 61.173571 0 1 0-1849.229716 0Z" fill="#B8C8D3" p-id="4168"></path><path d="M912.221548 292.721671c-150.567614 0-258.89216 96.580623-258.89216 322.16912 0 255.561794 108.149264 323.220815 258.89216 323.220815s265.202328-74.144471 265.202328-323.220815c0.175282-266.254023-114.459432-322.16912-265.202328-322.16912z m1.051695 560.553235c-104.29305 0-158.805888-61.173571-158.805889-238.208833 0-156.176652 56.79151-238.559397 161.084561-238.559397s161.08456 54.162273 161.08456 238.559397c0 172.477919-59.070181 238.208833-163.363232 238.208833zM563.234215 759.849367h-62.225265V576.503937c0-20.332763-16.476549-36.809312-36.809312-36.809312h-14.548442c-20.332763 0-36.809312 16.476549-36.809312 36.809312v183.34543H237.208881c-11.568641 0-21.033893-9.465252-21.033892-21.033893 0-3.330366 0.876412-6.836015 2.453954-9.815816l185.974666-351.967135c9.465252-17.878809 2.629237-40.139678-15.249572-49.60493-0.525847-0.175282-1.051695-0.525847-1.402259-0.701129l-11.042794-5.258474c-17.703526-8.413557-38.912701-1.40226-48.027388 15.950702l-226.815474 424.183499c-3.856214 7.18658-5.959603 15.249572-5.959603 23.487847 0 27.519343 22.26087 49.780212 49.780212 49.780212h266.955153v116.036974c0 24.364259 19.631633 43.995892 43.995892 43.995891 24.364259 0 43.995892-19.631633 43.995891-43.995891v-116.036974h62.225266c20.683328 0 37.510442-16.827114 37.510441-37.510442 0.350565-20.683328-16.476549-37.510442-37.335159-37.510441zM1716.592654 759.849367h-62.225265V576.503937c0-20.332763-16.476549-36.809312-36.809312-36.809312h-14.548442c-20.332763 0-36.809312 16.476549-36.809312 36.809312v183.34543H1390.56732c-11.568641 0-21.033893-9.465252-21.033892-21.033893 0-3.330366 0.876412-6.836015 2.453954-9.815816l185.974666-351.967135c9.465252-17.878809 2.629237-40.139678-15.249572-49.60493-0.525847-0.175282-1.051695-0.525847-1.402259-0.701129l-11.042794-5.258474c-17.703526-8.413557-38.912701-1.40226-48.027388 15.950702l-226.815474 424.183499c-3.856214 7.18658-5.959603 15.249572-5.959603 23.487847 0 27.519343 22.26087 49.780212 49.780212 49.780212h266.955153v116.036974c0 24.364259 19.631633 43.995892 43.995891 43.995891 24.364259 0 43.995892-19.631633 43.995892-43.995891v-116.036974h62.225266c20.683328 0 37.510442-16.827114 37.510441-37.510442 0.350565-20.683328-16.476549-37.510442-37.335159-37.510441z" fill="#409EFF" p-id="4169"></path><path d="M474.190737 974.39507c-24.714824 0-44.872304-20.15748-44.872304-44.872304v-115.160561H163.06441c-27.869908 0-50.656624-22.786717-50.656624-50.656625 0-8.238275 2.103389-16.651832 5.959603-23.838411l226.815474-424.183499c9.465252-17.703526 31.024991-24.890106 49.254365-16.301267l11.042793 5.258473c0.525847 0.175282 1.051695 0.525847 1.577542 0.70113 8.939404 4.732626 15.424855 12.620336 18.404656 22.085587 2.979801 9.640534 1.928107 19.806915-2.629236 28.74632L236.683034 707.965765c-1.577542 2.804519-2.278672 6.134885-2.278672 9.465252 0 11.042794 8.939404 20.15748 20.157481 20.15748h174.75659V554.944197c0-20.683328 16.827114-37.685724 37.685724-37.685724h14.548442c20.683328 0 37.685724 16.827114 37.685724 37.685724v182.469018h61.348853c21.209175 0 38.386854 17.177679 38.386854 38.386853 0 21.209175-17.177679 38.386854-38.386854 38.386854h-61.348853v115.160562c-0.175282 24.890106-20.332763 45.047586-45.047586 45.047586z m-95.879493-676.940774c-12.795618 0-25.240671 6.836015-31.550839 18.930504l-226.815474 424.183499c-3.856214 7.011298-5.78432 15.07429-5.784321 23.137281 0 26.993495 21.910305 48.9038 48.9038 48.9038h267.831565v116.913386c0 23.838412 19.281068 43.11948 43.119479 43.11948s43.11948-19.281068 43.11948-43.11948v-116.913386h63.101678c20.15748 0 36.634029-16.476549 36.634029-36.634029s-16.476549-36.634029-36.634029-36.63403h-63.101678V554.944197c0-19.806915-16.125984-35.9329-35.9329-35.932899h-14.548442c-19.806915 0-35.9329 16.125984-35.9329 35.932899v184.221842H254.38656c-12.094488 0-21.910305-9.815817-21.910304-21.910305 0-3.505649 0.876412-7.011298 2.453954-10.166381l185.974666-351.967135c4.557343-8.413557 5.433756-18.229374 2.629236-27.34406-2.804519-9.114687-9.114687-16.651832-17.528243-21.209175-0.525847-0.175282-0.876412-0.525847-1.40226-0.70113l-11.042793-5.258473c-4.907908-1.928107-9.991099-3.155084-15.249572-3.155084zM1642.448183 974.39507c-24.714824 0-44.872304-20.15748-44.872304-44.872304v-115.160561H1331.497139c-27.869908 0-50.656624-22.786717-50.656625-50.656625 0-8.238275 2.103389-16.651832 5.959603-23.838411l226.815474-424.183499c9.465252-17.703526 31.024991-24.890106 49.254365-16.301267l11.042794 5.258473c0.525847 0.175282 1.051695 0.525847 1.577542 0.70113 8.939404 4.732626 15.424855 12.620336 18.404656 22.085587 2.979801 9.640534 1.928107 19.806915-2.629237 28.74632L1404.94048 707.965765c-1.577542 2.804519-2.278672 6.134885-2.278672 9.465252 0 11.042794 8.939404 20.15748 20.157481 20.15748h174.75659V554.944197c0-20.683328 16.827114-37.685724 37.685724-37.685724h14.548442c20.683328 0 37.685724 16.827114 37.685724 37.685724v182.469018h61.348854c21.209175 0 38.386854 17.177679 38.386853 38.386853 0 21.209175-17.177679 38.386854-38.386853 38.386854h-61.348854v115.160562c0 24.890106-20.15748 45.047586-45.047586 45.047586z m-95.704211-676.940774c-12.795618 0-25.240671 6.836015-31.550839 18.930504L1288.377659 740.743581c-3.856214 7.011298-5.78432 15.07429-5.78432 23.137282 0 26.993495 21.910305 48.9038 48.9038 48.9038h267.831564v116.913386c0 23.838412 19.281068 43.11948 43.11948 43.119479s43.11948-19.281068 43.11948-43.119479v-116.913386h63.101677c20.15748 0 36.634029-16.476549 36.63403-36.63403s-16.476549-36.634029-36.63403-36.634029h-63.101677V554.944197c0-19.806915-16.125984-35.9329-35.9329-35.932899h-14.548442c-19.806915 0-35.9329 16.125984-35.9329 35.932899v184.221842H1422.819289c-12.094488 0-21.910305-9.815817-21.910305-21.910305 0-3.505649 0.876412-7.011298 2.453954-10.166381l185.974666-351.967135c4.557343-8.413557 5.433756-18.229374 2.629237-27.34406-2.804519-9.114687-9.114687-16.651832-17.528244-21.209175-0.525847-0.175282-0.876412-0.525847-1.402259-0.70113l-11.042794-5.258473c-4.907908-1.928107-10.166381-3.155084-15.249572-3.155084zM946.576906 919.70695c-83.785005 0-144.783293-21.55974-186.500514-66.081479-49.254365-52.409449-73.092776-136.895584-73.092776-258.015748 0-107.973982 24.539541-190.882574 73.092776-246.271825 44.697022-51.007189 107.448134-76.773708 186.500514-76.773708 87.290654 0 147.587812 19.456351 189.655597 61.524136 51.357754 51.182472 76.423143 136.720301 76.423143 261.521397 0.175282 218.051352-86.940089 324.097227-266.07874 324.097227z m0-645.389935c-166.343033 0-258.015748 114.108867-258.015748 321.292708 0 222.959261 79.578227 322.344403 258.015748 322.344402 177.911674 0 264.325916-105.520027 264.325916-322.344402 0-124.450531-24.890106-209.462513-75.897296-260.29442-41.71722-41.71722-101.488531-60.998288-188.42862-60.998288z m1.051695 560.553235c-112.005478 0-159.682301-71.515235-159.682301-239.085245 0-77.65012 14.022595-137.771996 41.541938-178.437521 27.519343-40.490243 68.009586-61.173571 120.419034-61.173571 56.440945 0 94.827799 15.950702 120.419035 50.481342 28.04519 37.685724 41.541938 99.385142 41.541938 188.954468 0 163.187949-52.234166 239.260527-164.239644 239.260527z m2.278671-476.76823c-51.708319 0-91.847997 20.332763-119.016775 60.297158-27.34406 40.314961-41.191373 100.086272-41.191373 177.385827 0 166.343033 47.326258 237.33242 157.929477 237.332421 110.778501 0 162.48682-75.371448 162.486819-237.332421 0-89.218761-13.496748-150.567614-41.191373-187.902773-25.415953-34.004793-63.101678-49.780212-119.016775-49.780212z" fill="#3F3D56" p-id="4170"></path><path d="M1764.970607 735.309825c18.930503 6.836015 39.789113-2.804519 46.800411-21.735022 6.836015-18.930503-2.804519-39.789113-21.735023-46.800411-6.48545-2.278672-13.321465-2.804519-20.15748-1.402259l0.876412 18.755221-8.939404-16.125985c-8.764122 4.031496-15.424855 11.568641-18.755221 20.508046-1.226977 3.155084-1.928107 6.48545-2.103389 9.815816-1.226977 16.476549 8.588839 31.550839 24.013694 36.984594z" fill="#57B894" p-id="4171"></path><path d="M1808.090086 953.361178c-3.505649-18.054091 13.67203-32.953098 24.188977-40.139679 1.40226-1.051695 2.979801-1.928107 4.382061-2.979801 12.269771-8.238275 24.890106-16.827114 28.921602-30.499144 5.959603-20.508045-10.516946-39.613831-25.065389-56.440945-1.051695-1.226977-1.928107-2.278672-2.979801-3.505649-11.393358-13.146183-21.209175-27.694625-29.096885-43.294762-3.155084-6.134885-6.134885-12.795618-7.011297-19.806915-1.226977-10.516946 2.278672-21.209175 5.258473-29.798015 10.692229-31.550839 22.26087-63.101678 34.355358-94.126669l1.577542 0.70113c-12.094488 30.849709-23.663129 62.57583-34.355358 93.951387-2.804519 8.413557-6.310168 18.930503-5.258473 28.921602 0.876412 6.836015 3.856214 13.321465 6.836015 19.281068 7.88771 15.424855 17.528244 29.798014 28.921602 42.944197 1.051695 1.051695 1.928107 2.278672 2.979801 3.505649 14.899007 17.177679 31.726121 36.634029 25.415954 58.193769-4.206779 14.197877-17.177679 22.961999-29.622732 31.375557-1.40226 1.051695-2.979801 1.928107-4.382061 2.979801-10.166381 7.011298-26.818213 21.384457-23.487847 38.386854l-1.577542 0.350565z" fill="#3F3D56" p-id="4172"></path><path d="M1778.817919 733.732283c-4.382061 0-8.588839-0.70113-12.795618-2.278671-15.600137-5.609038-25.766518-21.209175-24.539541-37.685724 0.175282-3.505649 0.876412-6.836015 2.103389-10.166382 3.330366-9.289969 10.166381-16.827114 19.105786-21.033892l0.70113-0.350565 7.537145 13.496748-0.70113-15.77542 0.70113-0.175282c6.836015-1.40226 14.022595-1.051695 20.508045 1.402259 9.465252 3.330366 16.827114 10.341664 21.033892 19.281068 4.206779 9.114687 4.732626 19.105786 1.226977 28.571038-3.330366 9.289969-10.341664 16.827114-19.281068 21.033892-4.732626 2.453954-10.166381 3.680931-15.600137 3.680931z m-15.950701-69.236562c-8.238275 4.031496-14.37316 11.042794-17.528244 19.631633-1.051695 3.155084-1.752824 6.310168-2.103389 9.640534-1.051695 15.775419 8.413557 30.499144 23.312564 35.932899 8.939404 3.330366 18.579938 2.804519 27.168778-1.226977s15.07429-11.218076 18.404655-20.15748c3.330366-8.939404 2.804519-18.579938-1.226977-27.168778s-11.218076-15.07429-20.15748-18.404656c-5.959603-2.278672-12.620336-2.629237-18.930503-1.577542l1.051694 21.735023-9.991098-18.404656z" fill="#3F3D56" p-id="4173"></path><path d="M1804.409155 626.809997c4.206779-11.743923 14.197877-20.332763 26.292366-23.137282l2.979801 17.878808 5.609038-18.75522c20.15748 0.350565 36.283465 16.827114 35.9329 36.984594-0.350565 20.15748-16.827114 36.283465-36.984594 35.9329-20.15748-0.350565-36.283465-16.827114-35.9329-36.984595 0-4.031496 0.70113-8.062992 2.103389-11.919205z" fill="#57B894" p-id="4174"></path><path d="M1840.69262 670.104759h-0.525848c-9.991099-0.175282-19.281068-4.206779-26.292365-11.393359s-10.692229-16.651832-10.516946-26.64293c0-4.206779 0.876412-8.238275 2.278671-12.269771 4.382061-12.094488 14.37316-20.85861 26.818213-23.663129l0.876412-0.175282 2.453955 15.074289 4.732625-15.775419h0.70113c20.508045 0.350565 37.159877 17.352961 36.809312 37.861006-0.175282 9.991099-4.206779 19.281068-11.393358 26.292366-7.011298 7.011298-16.125984 10.692229-25.941801 10.692229z m-8.764122-71.8658c-11.393358 2.804519-20.683328 11.218076-24.714824 22.436152-1.40226 3.680931-2.103389 7.712427-2.103389 11.568641-0.175282 9.465252 3.505649 18.579938 9.991099 25.240671 6.660733 6.836015 15.424855 10.692229 25.065388 10.867511 9.465252 0.175282 18.579938-3.505649 25.240671-9.991099 6.836015-6.660733 10.692229-15.424855 10.867512-25.065388 0.350565-19.456351-15.07429-35.407052-34.355358-36.108182l-6.48545 21.735022-3.505649-20.683328z" fill="#3F3D56" p-id="4175"></path><path d="M1831.753215 819.620678c18.930503 6.836015 39.789113-2.979801 46.800411-21.910305 5.78432-15.950702-0.175282-33.82951-14.37316-43.119479l-4.206778 14.373159-2.979802-18.054091h-0.175282c-18.930503-6.836015-39.789113 2.979801-46.800411 21.910305s2.804519 39.964396 21.735022 46.800411z" fill="#57B894" p-id="4176"></path><path d="M1845.951093 816.115029c-4.382061 0-8.588839-0.70113-12.795618-2.278672-9.465252-3.505649-16.827114-10.341664-21.033893-19.281068-4.206779-9.114687-4.732626-19.105786-1.226977-28.571037 3.330366-9.465252 10.341664-16.827114 19.281069-21.033893 9.114687-4.206779 19.105786-4.732626 28.571037-1.226977l0.525847 0.175283 2.453954 14.723725 3.505649-11.919206 1.051695 0.70113c14.723725 9.465252 20.683328 27.694625 14.723724 43.995891-3.330366 9.465252-10.166381 16.827114-19.281068 21.033893-5.083191 2.629237-10.341664 3.680931-15.775419 3.680931z m-12.094488-3.856214c8.939404 3.155084 18.579938 2.804519 27.168778-1.226977s15.07429-11.218076 18.404655-20.15748c5.609038-15.249572 0.175282-32.076686-13.146182-41.366655l-5.083191 16.827114-3.505649-21.209175c-8.764122-3.155084-18.404656-2.629237-26.818213 1.402259-8.588839 4.031496-15.07429 11.218076-18.404656 20.157481s-2.804519 18.579938 1.226977 27.168778 11.042794 15.249572 20.157481 18.404655l-0.350565 0.876413 0.350565-0.876413z" fill="#3F3D56" p-id="4177"></path><path d="M1793.716927 880.268401c3.505649 19.806915 22.436152 33.128381 42.243067 29.622732s33.128381-22.436152 29.622732-42.243067-22.436152-33.128381-42.243068-29.622732c-8.939404 1.577542-17.002396 6.48545-22.611434 13.67203l16.301267 24.539541-22.26087-12.9709c-1.577542 5.433756-2.103389 11.218076-1.051694 17.002396z" fill="#57B894" p-id="4178"></path><path d="M1831.227368 906.385484c-17.703526 0-33.654228-12.795618-36.809312-30.849709-1.051695-5.78432-0.70113-11.919206 1.051695-17.528243l0.350565-1.051695 19.806915 11.568641-14.548442-21.910305 0.350565-0.525847c5.78432-7.361862 13.847313-12.445053 23.137282-14.022595 9.815817-1.752824 19.806915 0.525847 27.869907 6.134885 8.238275 5.78432 13.67203 14.37316 15.424855 24.188977 1.752824 9.815817-0.525847 19.806915-6.134886 27.869907-5.78432 8.238275-14.37316 13.67203-24.188976 15.424855-2.103389 0.525847-4.206779 0.70113-6.310168 0.701129z m-34.355358-46.80041c-1.40226 5.083191-1.577542 10.516946-0.701129 15.600137 3.330366 19.281068 21.910305 32.251969 41.191372 28.921602 9.289969-1.577542 17.528244-6.836015 22.962-14.548443 5.433756-7.712427 7.537145-17.177679 5.959603-26.64293s-6.836015-17.528244-14.548443-22.961999c-7.712427-5.433756-17.177679-7.537145-26.64293-5.959603-8.588839 1.577542-16.301267 6.134885-21.55974 12.795618l18.054091 27.168777-24.714824-14.373159z" fill="#3F3D56" p-id="4179"></path><path d="M15.827163 824.178021c12.445053 4.557343 26.117083-1.928107 30.674426-14.37316 4.557343-12.445053-1.928107-26.117083-14.37316-30.674426-4.206779-1.577542-8.764122-1.928107-13.146182-0.876412l0.525847 12.26977-5.78432-10.516946c-5.78432 2.629237-10.166381 7.537145-12.269771 13.496748-0.70113 2.103389-1.226977 4.206779-1.40226 6.48545-0.70113 10.692229 5.78432 20.683328 15.77542 24.188976z" fill="#57B894" p-id="4180"></path><path d="M43.872353 967.559055c-2.453954-12.094488 9.114687-21.910305 16.125984-26.818213 0.876412-0.70113 1.928107-1.226977 2.804519-1.928107 8.062992-5.433756 16.301267-11.042794 18.930503-19.806915 3.856214-13.321465-6.836015-25.766518-16.476549-36.809312l-1.928107-2.278672c-7.537145-8.764122-13.847313-18.229374-19.105785-28.395755-2.278672-4.031496-3.856214-8.413557-4.557344-13.146182-0.876412-7.011298 1.577542-14.022595 3.505649-19.631633 7.011298-20.683328 14.548442-41.541938 22.611434-61.874701l1.577542 0.70113c-8.062992 20.332763-15.600137 41.01609-22.611434 61.699418-1.928107 5.433756-4.206779 12.269771-3.330366 18.930503 0.70113 4.382061 2.278672 8.588839 4.382061 12.445053 5.258473 10.166381 11.568641 19.631633 18.930503 28.220473l1.928107 2.278671c9.815817 11.393358 21.033893 24.188976 16.827114 38.386854-2.804519 9.465252-11.393358 15.249572-19.631633 20.85861-1.051695 0.70113-1.928107 1.226977-2.804519 1.928107-6.660733 4.557343-17.528244 13.847313-15.249572 24.890106l-1.928107 0.350565z" fill="#3F3D56" p-id="4181"></path><path d="M25.117132 823.476891c-2.804519 0-5.78432-0.525847-8.588839-1.577541-10.341664-3.680931-17.002396-14.022595-16.301267-25.065389 0.175282-2.278672 0.70113-4.557343 1.402259-6.660733 2.278672-6.134885 6.836015-11.218076 12.795618-14.022595l0.70113-0.350565 4.382061 8.062993-0.525847-9.28997 0.701129-0.175282c4.557343-1.051695 9.289969-0.70113 13.672031 0.876412 6.310168 2.278672 11.218076 6.836015 14.022595 12.795618 2.804519 5.959603 3.155084 12.795618 0.876412 18.930503-2.278672 6.310168-6.836015 11.218076-12.795618 14.022595-3.330366 1.577542-6.836015 2.453954-10.341664 2.453954z m-10.692229-45.398151c-5.258473 2.629237-9.114687 7.18658-11.042793 12.620336-0.70113 1.928107-1.226977 4.031496-1.40226 6.310167-0.70113 10.166381 5.433756 19.806915 15.07429 23.312565 5.78432 2.103389 12.094488 1.752824 17.703526-0.70113s9.815817-7.18658 11.919206-12.970901 1.752824-12.094488-0.70113-17.703526c-2.629237-5.609038-7.18658-9.815817-12.9709-11.919205-3.856214-1.40226-7.88771-1.752824-11.919206-1.051695l0.70113 15.424854-7.361863-13.321465z" fill="#3F3D56" p-id="4182"></path><path d="M41.768964 752.838069c2.804519-7.712427 9.289969-13.321465 17.177678-15.249572l1.928107 11.743923 3.680931-12.26977c13.321465 0.175282 23.838412 11.042794 23.663129 24.364259S77.176016 785.26532 64.029833 785.090038 40.191422 774.047244 40.366704 760.725779c0-2.629237 0.525847-5.258473 1.40226-7.88771z" fill="#57B894" p-id="4183"></path><path d="M65.607375 781.759671h-0.350565c-6.660733-0.175282-12.795618-2.804519-17.528244-7.537144-4.557343-4.732626-7.18658-11.042794-7.011297-17.703527 0-2.804519 0.525847-5.433756 1.402259-8.062992 2.979801-8.062992 9.640534-13.847313 17.878809-15.775419l0.876412-0.175283 1.577542 8.939405 2.804519-9.289969h0.70113c13.67203 0.175282 24.714824 11.568641 24.539541 25.240671-0.175282 6.660733-2.804519 12.795618-7.537145 17.528243-4.732626 4.206779-10.867511 6.836015-17.352961 6.836015zM59.647772 734.608696c-7.361862 1.928107-13.146183 7.361862-15.775419 14.37316-0.876412 2.453954-1.40226 4.907908-1.40226 7.537144-0.175282 6.134885 2.278672 11.919206 6.48545 16.476549s9.991099 6.836015 16.301267 7.011298c6.134885 0 11.919206-2.278672 16.476549-6.48545 4.382061-4.382061 6.836015-9.991099 7.011298-16.301267 0.175282-12.445053-9.640534-22.786717-22.085587-23.487847l-4.557344 15.249573-2.453954-14.37316z" fill="#3F3D56" p-id="4184"></path><path d="M59.823055 879.567271c12.445053 4.557343 26.117083-1.928107 30.674426-14.373159 3.856214-10.516946-0.175282-22.26087-9.465251-28.220473l-2.804519 9.465252-1.928107-11.919206c-12.445053-4.557343-26.117083 1.928107-30.674427 14.37316-4.732626 12.445053 1.577542 26.117083 14.197878 30.674426-0.175282 0-0.175282 0 0 0z" fill="#57B894" p-id="4185"></path><path d="M69.113024 877.639165c-2.804519 0-5.78432-0.525847-8.413557-1.577542-6.310168-2.278672-11.218076-6.836015-14.022595-12.795618-2.804519-5.959603-3.155084-12.795618-0.876412-18.930503 2.278672-6.310168 6.836015-11.218076 12.795618-14.022595s12.795618-3.155084 18.930503-0.876413l0.525847 0.350565 1.40226 8.58884 2.103389-7.011298 1.051694 0.70113c9.815817 6.310168 13.847313 18.404656 9.815817 29.272167-2.278672 6.310168-6.836015 11.218076-12.795618 14.022595-3.330366 1.577542-7.011298 2.278672-10.516946 2.278672z m0-48.027388c-3.330366 0-6.660733 0.70113-9.815817 2.278671-5.609038 2.629237-9.815817 7.18658-11.919205 12.970901-2.103389 5.78432-1.752824 12.094488 0.876412 17.703526 2.629237 5.609038 7.18658 9.815817 12.9709 11.919206 5.78432 2.103389 12.094488 1.752824 17.703526-0.876412 5.609038-2.629237 9.815817-7.18658 11.919206-12.970901 3.505649-9.815817 0.175282-20.508045-8.238275-26.64293l-3.505648 11.919205-2.453954-15.074289c-2.629237-0.70113-5.083191-1.226977-7.537145-1.226977z" fill="#3F3D56" p-id="4186"></path><path d="M34.757666 919.356385c2.278672 12.9709 14.723725 21.735022 27.694625 19.45635 12.9709-2.278672 21.735022-14.723725 19.456351-27.694625-2.278672-12.9709-14.723725-21.735022-27.694625-19.45635-5.959603 1.051695-11.218076 4.206779-14.899008 8.939404l10.692229 16.125984-14.548442-8.588839c-1.051695 3.680931-1.40226 7.537145-0.70113 11.218076z" fill="#57B894" p-id="4187"></path><path d="M59.297207 936.884629c-5.083191 0-9.991099-1.577542-14.197877-4.557344-5.433756-3.856214-9.114687-9.465252-10.166382-15.950702-0.70113-3.856214-0.350565-7.88771 0.70113-11.568641l0.350565-1.051694 12.269771 7.18658-8.939405-13.496748 0.350565-0.525847c3.856214-4.907908 9.289969-8.238275 15.424855-9.289969 6.48545-1.226977 13.146183 0.350565 18.579938 4.206778 5.433756 3.856214 9.114687 9.465252 10.166382 15.950702 2.453954 13.496748-6.660733 26.467648-20.157481 28.74632-1.40226 0.350565-2.979801 0.350565-4.382061 0.350565z m-22.260869-30.499145c-0.876412 3.155084-0.876412 6.48545-0.350565 9.815817 1.051695 6.134885 4.382061 11.393358 9.465251 14.899007 5.083191 3.505649 11.218076 4.907908 17.177679 3.856214 12.620336-2.278672 20.85861-14.197877 18.755221-26.642931-1.051695-6.134885-4.382061-11.393358-9.465251-14.899007-5.083191-3.505649-11.218076-4.907908-17.177679-3.856214-5.433756 0.876412-10.341664 3.856214-13.847313 8.238275l12.445053 18.755221-17.002396-10.166382z" fill="#3F3D56" p-id="4188"></path><path d="M1021.773072 622.427936m-8.764122 0a8.764122 8.764122 0 1 0 17.528244 0 8.764122 8.764122 0 1 0-17.528244 0Z" fill="#409EFF" p-id="4189"></path><path d="M807.928498 622.427936m-8.764122 0a8.764122 8.764122 0 1 0 17.528244 0 8.764122 8.764122 0 1 0-17.528244 0Z" fill="#409EFF" p-id="4190"></path><path d="M875.938084 568.79151l-14.37316-14.37316 14.37316-14.37316c3.330366-3.330366 3.330366-8.764122 0-12.094488l-0.175283-0.175283c-3.330366-3.330366-8.764122-3.155084-11.919206 0.175283l-14.373159 14.37316-14.37316-14.37316-0.175283-0.175283c-3.330366-3.330366-8.764122-3.155084-11.919205 0.175283l-0.175283 0.175282c-3.330366 3.330366-3.155084 8.764122 0.175283 11.919206l14.373159 14.37316-14.373159 14.37316-0.175283 0.175282c-3.330366 3.330366-3.155084 8.764122 0.175283 11.919206l0.175282 0.175282c3.330366 3.330366 8.764122 3.155084 11.919206-0.175282l14.37316-14.37316 14.373159 14.37316 0.175283 0.175282c3.330366 3.330366 8.764122 3.155084 11.919206-0.175282l0.175282-0.175282c3.155084-3.330366 3.155084-8.588839-0.175282-11.919206zM1017.566293 568.79151l-14.37316-14.37316 14.37316-14.37316c3.330366-3.330366 3.330366-8.764122 0-12.094488l-0.175282-0.175283c-3.330366-3.330366-8.764122-3.155084-11.919206 0.175283l-14.37316 14.37316-14.37316-14.37316-0.350565-0.350565c-3.330366-3.330366-8.764122-3.155084-11.919205 0.175282l-0.175283 0.175283c-3.330366 3.330366-3.155084 8.764122 0.175283 11.919206l14.373159 14.373159-14.373159 14.37316-0.175283 0.175283c-3.330366 3.330366-3.155084 8.764122 0.175283 11.919206l0.175282 0.175282c3.330366 3.330366 8.764122 3.155084 11.919206-0.175282l14.37316-14.37316 14.37316 14.37316 0.175282 0.175282c3.330366 3.330366 8.764122 3.155084 11.919206-0.175282l0.175282-0.175283c3.330366-3.155084 3.330366-8.413557 0-11.743923zM856.832298 656.783293h136.720301c7.011298 0 12.620336 5.609038 12.620336 12.620336s-5.609038 12.620336-12.620336 12.620335h-136.720301c-7.011298 0-12.620336-5.609038-12.620336-12.620335s5.609038-12.620336 12.620336-12.620336z" fill="#409EFF" p-id="4191"></path></svg>